#
#
#

mtllib NavMesh.mtl


#
#  Mesh
#
g  Mesh


#
#  Mesh_None
#
usemtl  Mesh_None

v 93.046532 10.000000 -320.853455
v 92.367622 10.000000 -391.913818
v -87.772163 10.000000 -392.140106
v -87.997139 10.000000 -317.911682
v 67.021324 10.000000 -317.911652
v 66.795013 10.000000 -282.155212
v 26.965088 10.000000 -281.476379
v 26.512486 10.000000 -228.294373
v -31.421906 10.000000 -227.389145
v -31.874519 10.000000 -188.238144
v -91.393066 10.000000 -187.332901
v -91.393059 10.000000 -102.513191
v -3.567356 10.000000 -102.647270
v -3.567353 10.000000 -79.545143
v -36.256073 10.000000 -39.312927
v -18.159653 10.000000 0.000000
v 17.938280 10.000000 0.000000
v 36.821995 10.000000 -39.470093
v 3.818985 10.000000 -79.702309
v 4.133310 10.000000 -102.647270
v 92.595001 10.000000 -102.647255
v 92.820221 10.000000 -186.427536
v -7.659750 10.000000 -187.332748
v -7.433453 10.000000 -210.416000
v 52.085094 10.000000 -210.642288
v 52.537674 10.000000 -264.050598
v 92.367622 10.000000 -264.503174
vn 0.000000 1.000000 0.000000
vn 0.000000 1.000000 -0.000000
vn 0.000000 1.000000 0.000000
vn 0.000000 1.000000 -0.000000
vn 0.000000 1.000000 0.000000
vn 0.000000 1.000000 0.000000
vn 0.000000 1.000000 -0.000000
vn 0.000000 1.000000 -0.000000
vn 0.000000 1.000000 -0.000000
vn 0.000000 1.000000 0.000000
vn 0.000000 1.000000 0.000000
vn 0.000000 1.000000 0.000000
vn 0.000000 1.000000 0.000000
vn 0.000000 1.000000 0.000001
vn 0.000000 1.000000 0.000000
vn 0.000000 1.000000 0.000000
vn 0.000000 1.000000 0.000000
vn 0.000000 1.000000 -0.000000
vn 0.000000 1.000000 -0.000000
vn 0.000000 1.000000 -0.000000
vn 0.000000 1.000000 -0.000000
vn 0.000000 1.000000 0.000000
vn 0.000000 1.000000 0.000000
vn 0.000000 1.000000 0.000000
vn 0.000000 1.000000 -0.000000
vt 0.965233 0.802134
vt 0.961838 0.979785
vt 0.060014 0.794779
vt 0.835106 0.794779
vt 0.961838 0.661258
vt 0.061139 0.980350
vt 0.833975 0.705388
vt 0.634825 0.703691
vt 0.632562 0.570736
vt 0.762688 0.660127
vt 0.342890 0.568473
vt 0.760425 0.526606
vt 0.462832 0.526040
vt 0.340627 0.470595
vt 0.043035 0.468332
vt 0.461701 0.468332
vt 0.043035 0.256283
vt 0.482163 0.256618
vt 0.964101 0.466069
vt 0.520661 0.256618
vt 0.962975 0.256618
vt 0.482163 0.198863
vt 0.318720 0.098282
vt 0.684110 0.098675
vt 0.519095 0.199256
vt 0.409202 0.000000
vt 0.589691 0.000000
f 1/1/1 2/2/2 4/3/1
f 1/1/1 5/4/3 27/5/4
f 1/1/1 4/3/1 5/4/3
f 2/2/2 3/6/5 4/3/1
f 5/4/3 6/7/6 27/5/4
f 6/7/6 7/8/7 27/5/4
f 7/8/7 8/9/8 26/10/9
f 7/8/7 26/10/9 27/5/4
f 8/9/8 9/11/10 25/12/11
f 8/9/8 25/12/11 26/10/9
f 9/11/10 24/13/12 25/12/11
f 9/11/10 10/14/13 24/13/12
f 10/14/13 11/15/14 23/16/15
f 10/14/16 23/16/15 24/13/12
f 11/15/14 12/17/17 23/16/15
f 12/17/17 13/18/18 22/19/19
f 12/17/17 22/19/19 23/16/15
f 13/18/18 20/20/20 22/19/19
f 20/20/20 21/21/5 22/19/19
f 13/18/21 14/22/22 20/20/20
f 14/22/22 15/23/23 18/24/24
f 14/22/22 18/24/24 19/25/25
f 14/22/22 19/25/25 20/20/20
f 15/23/23 16/26/5 18/24/24
f 16/26/5 17/27/5 18/24/24
