#
#
#

mtllib stage.mtl


#
#  Mesh
#
g  Mesh


#
#  Mesh_None
#
usemtl  Mesh_None

v -21.186089 -5.000000 1.267696
v -21.186089 45.000000 1.267696
v -40.626530 45.000000 -40.422459
v -40.626530 -5.000000 -40.422459
v -38.813911 45.000000 -41.267696
v -38.813911 -5.000000 -41.267696
v -19.373470 45.000000 0.422459
v -19.373470 -5.000000 0.422459
v -39.978523 -5.000000 -40.725632
v -39.978523 45.000000 -40.725632
v -6.553568 45.000000 -80.559944
v -6.553568 -5.000000 -80.559944
v -5.021479 45.000000 -79.274368
v -5.021479 -5.000000 -79.274368
v -38.446434 45.000000 -39.440056
v -38.446434 -5.000000 -39.440056
v 19.373470 -5.270443 0.422459
v 19.373470 44.729557 0.422459
v 38.813911 44.729557 -41.267696
v 38.813911 -5.270443 -41.267696
v 40.626530 44.729557 -40.422459
v 40.626530 -5.270443 -40.422459
v 21.186089 44.729557 1.267696
v 21.186089 -5.270443 1.267696
v -10.000000 -5.000000 -30.000000
v -10.000000 45.000000 -30.000000
v -10.000000 45.000000 -50.000000
v -10.000000 -5.000000 -50.000000
v 10.000000 45.000000 -50.000000
v 10.000000 -5.000000 -50.000000
v 10.000000 45.000000 -30.000000
v 10.000000 -5.000000 -30.000000
v 38.446434 -5.000000 -39.440056
v 38.446434 45.000000 -39.440056
v 5.021479 45.000000 -79.274368
v 5.021479 -5.000000 -79.274368
v 6.553568 45.000000 -80.559944
v 6.553568 -5.000000 -80.559944
v 39.978523 45.000000 -40.725632
v 39.978523 -5.000000 -40.725632
v -6.997597 -5.000000 -79.246529
v -6.997597 45.000000 -79.246529
v -6.997597 45.000000 -99.246529
v -6.997597 -5.000000 -99.246529
v -4.997597 45.000000 -99.246529
v -4.997597 -5.000000 -99.246529
v -4.997597 45.000000 -79.246529
v -4.997597 -5.000000 -79.246529
v 4.997600 -5.000000 -79.247002
v 4.997600 45.000000 -79.247002
v 4.997600 45.000000 -99.247002
v 4.997600 -5.000000 -99.247002
v 6.997600 45.000000 -99.247002
v 6.997600 -5.000000 -99.247002
v 6.997600 45.000000 -79.247002
v 6.997600 -5.000000 -79.247002
v 95.000000 -5.000000 -99.000000
v 95.000000 45.000000 -99.000000
v 5.000000 45.000000 -99.000000
v 5.000000 -5.000000 -99.000000
v 5.000000 45.000000 -101.000000
v 5.000000 -5.000000 -101.000000
v 95.000000 45.000000 -101.000000
v 95.000000 -5.000000 -101.000000
v -5.000000 -5.000000 -99.000000
v -5.000000 45.000000 -99.000000
v -95.000000 45.000000 -99.000000
v -95.000000 -5.000000 -99.000000
v -95.000000 45.000000 -101.000000
v -95.000000 -5.000000 -101.000000
v -5.000000 45.000000 -101.000000
v -5.000000 -5.000000 -101.000000
v -96.000000 -5.000000 -100.000000
v -96.000000 45.000000 -100.000000
v -96.000000 45.000000 -190.000000
v -96.000000 -5.000000 -190.000000
v -94.000000 45.000000 -190.000000
v -94.000000 -5.000000 -190.000000
v -94.000000 45.000000 -100.000000
v -94.000000 -5.000000 -100.000000
v 94.000000 -5.000000 -100.000000
v 94.000000 45.000000 -100.000000
v 94.000000 45.000000 -190.000000
v 94.000000 -5.000000 -190.000000
v 96.000000 45.000000 -190.000000
v 96.000000 -5.000000 -190.000000
v 96.000000 45.000000 -100.000000
v 96.000000 -5.000000 -100.000000
v 95.000000 -5.000000 -189.000000
v 95.000000 45.000000 -189.000000
v -5.000000 45.000000 -189.000000
v -5.000000 -5.000000 -189.000000
v -5.000000 45.000000 -191.000000
v -5.000000 -5.000000 -191.000000
v 95.000000 45.000000 -191.000000
v 95.000000 -5.000000 -191.000000
v -35.000000 -5.000000 -189.000000
v -35.000000 45.000000 -189.000000
v -95.000000 45.000000 -189.000000
v -95.000000 -5.000000 -189.000000
v -95.000000 45.000000 -191.000000
v -95.000000 -5.000000 -191.000000
v -35.000000 45.000000 -191.000000
v -35.000000 -5.000000 -191.000000
v -20.000000 -5.000000 -120.000000
v -20.000000 45.000000 -120.000000
v -70.000000 45.000000 -120.000000
v -70.000000 -5.000000 -120.000000
v -70.000000 45.000000 -140.000000
v -70.000000 -5.000000 -140.000000
v -20.000000 45.000000 -140.000000
v -20.000000 -5.000000 -140.000000
v 70.000000 -5.000000 -120.000000
v 70.000000 45.000000 -120.000000
v 20.000000 45.000000 -120.000000
v 20.000000 -5.000000 -120.000000
v 20.000000 45.000000 -140.000000
v 20.000000 -5.000000 -140.000000
v 70.000000 45.000000 -140.000000
v 70.000000 -5.000000 -140.000000
v 10.000000 -5.000000 -110.000000
v 10.000000 45.000000 -110.000000
v -10.000000 45.000000 -110.000000
v -10.000000 -5.000000 -110.000000
v -10.000000 45.000000 -130.000000
v -10.000000 -5.000000 -130.000000
v 10.000000 45.000000 -130.000000
v 10.000000 -5.000000 -130.000000
v 60.000000 -5.000000 -160.000000
v 60.000000 45.000000 -160.000000
v -60.000000 45.000000 -160.000000
v -60.000000 -5.000000 -160.000000
v -60.000000 45.000000 -170.000000
v -60.000000 -5.000000 -170.000000
v 60.000000 45.000000 -170.000000
v 60.000000 -5.000000 -170.000000
v -6.000000 -5.000000 -189.000000
v -6.000000 45.000000 -189.000000
v -6.000000 45.000000 -209.000000
v -6.000000 -5.000000 -209.000000
v -4.000000 45.000000 -209.000000
v -4.000000 -5.000000 -209.000000
v -4.000000 45.000000 -189.000000
v -4.000000 -5.000000 -189.000000
v -36.000000 -5.000000 -189.000000
v -36.000000 45.000000 -189.000000
v -36.000000 45.000000 -229.000000
v -36.000000 -5.000000 -229.000000
v -34.000000 45.000000 -229.000000
v -34.000000 -5.000000 -229.000000
v -34.000000 45.000000 -189.000000
v -34.000000 -5.000000 -189.000000
v 25.000000 -5.000000 -229.000000
v 25.000000 45.000000 -229.000000
v -35.000000 45.000000 -229.000000
v -35.000000 -5.000000 -229.000000
v -35.000000 45.000000 -231.000000
v -35.000000 -5.000000 -231.000000
v 25.000000 45.000000 -231.000000
v 25.000000 -5.000000 -231.000000
v 55.000000 -5.000000 -207.000000
v 55.000000 45.000000 -207.000000
v -5.000000 45.000000 -207.000000
v -5.000000 -5.000000 -207.000000
v -5.000000 45.000000 -209.000000
v -5.000000 -5.000000 -209.000000
v 55.000000 45.000000 -209.000000
v 55.000000 -5.000000 -209.000000
v 54.000000 -5.000000 -207.000000
v 54.000000 45.000000 -207.000000
v 54.000000 45.000000 -263.000000
v 54.000000 -5.000000 -263.000000
v 56.000000 45.000000 -263.000000
v 56.000000 -5.000000 -263.000000
v 56.000000 45.000000 -207.000000
v 56.000000 -5.000000 -207.000000
v 23.000000 -5.000000 -229.000000
v 23.000000 45.000000 -229.000000
v 23.000000 45.000000 -285.000000
v 23.000000 -5.000000 -285.000000
v 25.000000 45.000000 -285.000000
v 25.000000 -5.000000 -285.000000
v 25.000000 45.000000 -229.000000
v 25.000000 -5.000000 -229.000000
v 65.000000 -5.000000 -283.000427
v 65.000000 45.000000 -283.000427
v 25.000000 45.000000 -283.000427
v 25.000000 -5.000000 -283.000427
v 25.000000 45.000000 -285.000427
v 25.000000 -5.000000 -285.000427
v 65.000000 45.000000 -285.000427
v 65.000000 -5.000000 -285.000427
v 95.000000 -5.000000 -261.000000
v 95.000000 45.000000 -261.000000
v 55.000000 45.000000 -261.000000
v 55.000000 -5.000000 -261.000000
v 55.000000 45.000000 -263.000000
v 55.000000 -5.000000 -263.000000
v 95.000000 45.000000 -263.000000
v 95.000000 -5.000000 -263.000000
v 94.000000 -5.000000 -258.817749
v 94.000000 45.000000 -258.817749
v 94.000000 45.000000 -398.817749
v 94.000000 -5.000000 -398.817749
v 96.000000 45.000000 -398.817749
v 96.000000 -5.000000 -398.817749
v 96.000000 45.000000 -258.817749
v 96.000000 -5.000000 -258.817749
v 64.000000 -5.000000 -283.000000
v 64.000000 45.000000 -283.000000
v 64.000000 45.000000 -317.000000
v 64.000000 -5.000000 -317.000000
v 66.000000 45.000000 -317.000000
v 66.000000 -5.000000 -317.000000
v 66.000000 45.000000 -283.000000
v 66.000000 -5.000000 -283.000000
v 65.000000 -5.000000 -315.000000
v 65.000000 45.000000 -315.000000
v -95.000000 45.000000 -315.000000
v -95.000000 -5.000000 -315.000000
v -95.000000 45.000000 -317.000000
v -95.000000 -5.000000 -317.000000
v 65.000000 45.000000 -317.000000
v 65.000000 -5.000000 -317.000000
v -91.000000 -5.000000 -314.480011
v -91.000000 45.000000 -314.480011
v -91.000000 45.000000 -395.519989
v -91.000000 -5.000000 -395.519989
v -89.000000 45.000000 -395.519989
v -89.000000 -5.000000 -395.519989
v -89.000000 45.000000 -314.480011
v -89.000000 -5.000000 -314.480011
v 95.000000 -5.000000 -393.421295
v 95.000000 45.000000 -393.421295
v -95.000000 45.000000 -393.421295
v -95.000000 -5.000000 -393.421295
v -95.000000 45.000000 -395.421295
v -95.000000 -5.000000 -395.421295
v 95.000000 45.000000 -395.421295
v 95.000000 -5.000000 -395.421295
v -50.000000 -5.000000 -360.000000
v -50.000000 45.000000 -360.000000
v -70.000000 45.000000 -360.000000
v -70.000000 -5.000000 -360.000000
v -70.000000 45.000000 -380.000000
v -70.000000 -5.000000 -380.000000
v -50.000000 45.000000 -380.000000
v -50.000000 -5.000000 -380.000000
v -15.000000 -5.000000 -330.000000
v -15.000000 45.000000 -330.000000
v -35.000000 45.000000 -330.000000
v -35.000000 -5.000000 -330.000000
v -35.000000 45.000000 -350.000000
v -35.000000 -5.000000 -350.000000
v -15.000000 45.000000 -350.000000
v -15.000000 -5.000000 -350.000000
v 55.000000 -5.000000 -365.000000
v 55.000000 45.000000 -365.000000
v 35.000000 45.000000 -365.000000
v 35.000000 -5.000000 -365.000000
v 35.000000 45.000000 -385.000000
v 35.000000 -5.000000 -385.000000
v 55.000000 45.000000 -385.000000
v 55.000000 -5.000000 -385.000000
vn -0.463332 -0.666667 0.583848
vn -0.020357 0.666667 0.745078
vn -0.912530 0.408248 -0.024932
vn -0.715065 -0.408248 -0.567464
vn -0.912530 0.408248 -0.024932
vn 0.020357 0.666667 -0.745078
vn -0.715065 -0.408248 -0.567464
vn 0.463333 -0.666666 -0.583848
vn 0.020357 0.666667 -0.745078
vn 0.912530 0.408248 0.024932
vn 0.715065 -0.408248 0.567464
vn 0.912530 0.408248 0.024932
vn -0.724959 -0.666667 -0.173177
vn -0.683873 0.666666 0.296434
vn -0.363056 0.408249 -0.837570
vn 0.212098 -0.408248 -0.887890
vn -0.363056 0.408249 -0.837570
vn 0.683874 0.666667 -0.296433
vn 0.724959 -0.666667 0.173177
vn 0.683873 0.666667 -0.296433
vn 0.363056 0.408248 0.837570
vn -0.212098 -0.408248 0.887890
vn 0.363056 0.408248 0.837570
vn -0.724959 -0.666667 -0.173177
vn -0.363056 0.408249 -0.837570
vn -0.912530 -0.408248 0.024932
vn -0.715065 0.408248 0.567464
vn -0.463333 0.666666 -0.583848
vn -0.020357 -0.666667 -0.745078
vn 0.715065 0.408248 -0.567464
vn 0.912530 -0.408248 -0.024932
vn 0.715065 0.408248 -0.567464
vn 0.463332 0.666667 0.583848
vn 0.020357 -0.666667 0.745078
vn 0.020357 -0.666667 0.745078
vn -0.715065 0.408248 0.567464
vn -0.912530 -0.408248 0.024932
vn 0.912530 -0.408248 -0.024932
vn -0.912530 -0.408248 0.024932
vn -0.816497 -0.408248 0.408248
vn -0.333333 0.666667 0.666667
vn -0.816497 0.408248 -0.408248
vn -0.333333 -0.666667 -0.666667
vn 0.333333 0.666667 -0.666667
vn 0.816497 -0.408248 -0.408248
vn 0.816497 0.408248 0.408248
vn 0.333333 -0.666667 0.666667
vn -0.363056 -0.408248 0.837570
vn 0.212098 0.408248 0.887890
vn -0.724959 0.666667 0.173178
vn -0.683873 -0.666667 -0.296433
vn -0.724959 0.666667 0.173178
vn -0.212098 0.408249 -0.887889
vn 0.363056 -0.408248 -0.837570
vn -0.212098 0.408249 -0.887889
vn 0.724959 0.666667 -0.173176
vn 0.363056 -0.408248 -0.837570
vn 0.683873 -0.666667 0.296434
vn 0.724959 0.666667 -0.173176
vn -0.363056 -0.408248 0.837570
vn -0.333333 0.666667 0.666667
vn 0.333333 -0.666667 0.666667
vn 0.408248 -0.408248 0.816497
vn 0.666667 0.666667 0.333333
vn -0.408248 0.408248 0.816497
vn -0.666667 -0.666667 0.333333
vn -0.666667 0.666667 -0.333333
vn -0.408248 -0.408248 -0.816497
vn 0.408248 0.408248 -0.816497
vn 0.666667 -0.666667 -0.333333
vn -0.816497 -0.408248 0.408248
vn -0.816497 0.408248 -0.408248
vn -0.333333 -0.666667 -0.666667
vn 0.333333 0.666667 -0.666667
vn 0.816497 -0.408248 -0.408248
vn 0.816497 0.408248 0.408248
vt 0.375000 0.000000
vt 0.625000 0.000000
vt 0.625000 0.250000
vt 0.375000 0.250000
vt 0.625000 0.500000
vt 0.375000 0.500000
vt 0.625000 0.750000
vt 0.375000 0.750000
vt 0.625000 1.000000
vt 0.375000 1.000000
vt 0.125000 0.500000
vt 0.125000 0.750000
vt 0.875000 0.500000
vt 0.875000 0.750000
f 1/1/1 2/2/2 3/3/3
f 1/1/1 3/3/3 4/4/4
f 4/4/4 3/3/5 5/5/6
f 4/4/7 5/5/6 6/6/8
f 6/6/8 5/5/9 7/7/10
f 6/6/8 7/7/10 8/8/11
f 8/8/11 7/7/12 2/9/2
f 8/8/11 2/9/2 1/10/1
f 4/11/4 6/6/8 1/12/1
f 6/6/8 8/8/11 1/12/1
f 5/5/6 3/13/3 2/14/2
f 5/5/6 2/14/2 7/7/10
f 9/1/13 10/2/14 11/3/15
f 9/1/13 11/3/15 12/4/16
f 12/4/16 11/3/17 13/5/18
f 12/4/16 13/5/18 14/6/19
f 14/6/19 13/5/20 15/7/21
f 14/6/19 15/7/21 16/8/22
f 16/8/22 15/7/23 10/9/14
f 16/8/22 10/9/14 9/10/24
f 12/11/16 14/6/19 9/12/24
f 14/6/19 16/8/22 9/12/13
f 13/5/18 11/13/25 10/14/14
f 13/5/18 10/14/14 15/7/21
f 17/1/26 18/2/27 19/3/28
f 17/1/26 19/3/28 20/4/29
f 20/4/29 19/3/28 21/5/30
f 20/4/29 21/5/30 22/6/31
f 22/6/31 21/5/32 23/7/33
f 22/6/31 23/7/33 24/8/34
f 24/8/34 23/7/33 18/9/27
f 24/8/35 18/9/36 17/10/37
f 20/11/29 22/6/38 24/8/35
f 20/11/29 24/8/34 17/12/39
f 21/5/30 19/13/28 23/7/33
f 19/13/28 18/14/27 23/7/33
f 25/1/40 26/2/41 27/3/42
f 25/1/40 27/3/42 28/4/43
f 28/4/43 27/3/42 29/5/44
f 28/4/43 29/5/44 30/6/45
f 30/6/45 29/5/44 31/7/46
f 30/6/45 31/7/46 32/8/47
f 32/8/47 31/7/46 26/9/41
f 32/8/47 26/9/41 25/10/40
f 28/11/43 30/6/45 32/8/47
f 28/11/43 32/8/47 25/12/40
f 29/5/44 27/13/42 26/14/41
f 29/5/44 26/14/41 31/7/46
f 33/1/48 34/2/49 35/3/50
f 33/1/48 35/3/50 36/4/51
f 36/4/51 35/3/52 37/5/53
f 36/4/51 37/5/53 38/6/54
f 38/6/54 37/5/55 39/7/56
f 38/6/57 39/7/56 40/8/58
f 40/8/58 39/7/59 34/9/49
f 40/8/58 34/9/49 33/10/60
f 36/11/51 38/6/54 40/8/58
f 36/11/51 40/8/58 33/12/48
f 37/5/53 35/13/52 39/7/59
f 35/13/50 34/14/49 39/7/56
f 41/1/40 42/2/61 43/3/42
f 41/1/40 43/3/42 44/4/43
f 44/4/43 43/3/42 45/5/44
f 44/4/43 45/5/44 46/6/45
f 46/6/45 45/5/44 47/7/46
f 46/6/45 47/7/46 48/8/62
f 48/8/62 47/7/46 42/9/61
f 48/8/62 42/9/61 41/10/40
f 44/11/43 46/6/45 48/8/62
f 44/11/43 48/8/62 41/12/40
f 45/5/44 43/13/42 42/14/61
f 45/5/44 42/14/61 47/7/46
f 49/1/40 50/2/41 51/3/42
f 49/1/40 51/3/42 52/4/43
f 52/4/43 51/3/42 53/5/44
f 52/4/43 53/5/44 54/6/45
f 54/6/45 53/5/44 55/7/46
f 54/6/45 55/7/46 56/8/47
f 56/8/47 55/7/46 50/9/41
f 56/8/47 50/9/41 49/10/40
f 52/11/43 54/6/45 56/8/47
f 52/11/43 56/8/47 49/12/40
f 53/5/44 51/13/42 50/14/41
f 53/5/44 50/14/41 55/7/46
f 57/1/63 58/2/64 59/3/65
f 57/1/63 59/3/65 60/4/66
f 60/4/66 59/3/65 61/5/67
f 60/4/66 61/5/67 62/6/68
f 62/6/68 61/5/67 63/7/69
f 62/6/68 63/7/69 64/8/70
f 64/8/70 63/7/69 58/9/64
f 64/8/70 58/9/64 57/10/63
f 60/11/66 62/6/68 64/8/70
f 60/11/66 64/8/70 57/12/63
f 61/5/67 59/13/65 58/14/64
f 61/5/67 58/14/64 63/7/69
f 65/1/63 66/2/64 67/3/65
f 65/1/63 67/3/65 68/4/66
f 68/4/66 67/3/65 69/5/67
f 68/4/66 69/5/67 70/6/68
f 70/6/68 69/5/67 71/7/69
f 70/6/68 71/7/69 72/8/70
f 72/8/70 71/7/69 66/9/64
f 72/8/70 66/9/64 65/10/63
f 68/11/66 70/6/68 72/8/70
f 68/11/66 72/8/70 65/12/63
f 69/5/67 67/13/65 66/14/64
f 69/5/67 66/14/64 71/7/69
f 73/1/40 74/2/41 75/3/42
f 73/1/40 75/3/42 76/4/43
f 76/4/43 75/3/42 77/5/44
f 76/4/43 77/5/44 78/6/45
f 78/6/45 77/5/44 79/7/46
f 78/6/45 79/7/46 80/8/47
f 80/8/47 79/7/46 74/9/41
f 80/8/47 74/9/41 73/10/40
f 76/11/43 78/6/45 80/8/47
f 76/11/43 80/8/47 73/12/40
f 77/5/44 75/13/42 74/14/41
f 77/5/44 74/14/41 79/7/46
f 81/1/40 82/2/41 83/3/42
f 81/1/40 83/3/42 84/4/43
f 84/4/43 83/3/42 85/5/44
f 84/4/43 85/5/44 86/6/45
f 86/6/45 85/5/44 87/7/46
f 86/6/45 87/7/46 88/8/47
f 88/8/47 87/7/46 82/9/41
f 88/8/47 82/9/41 81/10/40
f 84/11/43 86/6/45 88/8/47
f 84/11/43 88/8/47 81/12/40
f 85/5/44 83/13/42 82/14/41
f 85/5/44 82/14/41 87/7/46
f 89/1/63 90/2/64 91/3/65
f 89/1/63 91/3/65 92/4/66
f 92/4/66 91/3/65 93/5/67
f 92/4/66 93/5/67 94/6/68
f 94/6/68 93/5/67 95/7/69
f 94/6/68 95/7/69 96/8/70
f 96/8/70 95/7/69 90/9/64
f 96/8/70 90/9/64 89/10/63
f 92/11/66 94/6/68 96/8/70
f 92/11/66 96/8/70 89/12/63
f 93/5/67 91/13/65 90/14/64
f 93/5/67 90/14/64 95/7/69
f 97/1/63 98/2/64 99/3/65
f 97/1/63 99/3/65 100/4/66
f 100/4/66 99/3/65 101/5/67
f 100/4/66 101/5/67 102/6/68
f 102/6/68 101/5/67 103/7/69
f 102/6/68 103/7/69 104/8/70
f 104/8/70 103/7/69 98/9/64
f 104/8/70 98/9/64 97/10/63
f 100/11/66 102/6/68 104/8/70
f 100/11/66 104/8/70 97/12/63
f 101/5/67 99/13/65 98/14/64
f 101/5/67 98/14/64 103/7/69
f 105/1/63 106/2/64 107/3/65
f 105/1/63 107/3/65 108/4/66
f 108/4/66 107/3/65 109/5/67
f 108/4/66 109/5/67 110/6/68
f 110/6/68 109/5/67 111/7/69
f 110/6/68 111/7/69 112/8/70
f 112/8/70 111/7/69 106/9/64
f 112/8/70 106/9/64 105/10/63
f 108/11/66 110/6/68 112/8/70
f 108/11/66 112/8/70 105/12/63
f 109/5/67 107/13/65 106/14/64
f 109/5/67 106/14/64 111/7/69
f 113/1/63 114/2/64 115/3/65
f 113/1/63 115/3/65 116/4/66
f 116/4/66 115/3/65 117/5/67
f 116/4/66 117/5/67 118/6/68
f 118/6/68 117/5/67 119/7/69
f 118/6/68 119/7/69 120/8/70
f 120/8/70 119/7/69 114/9/64
f 120/8/70 114/9/64 113/10/63
f 116/11/66 118/6/68 120/8/70
f 116/11/66 120/8/70 113/12/63
f 117/5/67 115/13/65 114/14/64
f 117/5/67 114/14/64 119/7/69
f 121/1/63 122/2/64 123/3/65
f 121/1/63 123/3/65 124/4/66
f 124/4/66 123/3/65 125/5/67
f 124/4/66 125/5/67 126/6/68
f 126/6/68 125/5/67 127/7/69
f 126/6/68 127/7/69 128/8/70
f 128/8/70 127/7/69 122/9/64
f 128/8/70 122/9/64 121/10/63
f 124/11/66 126/6/68 128/8/70
f 124/11/66 128/8/70 121/12/63
f 125/5/67 123/13/65 122/14/64
f 125/5/67 122/14/64 127/7/69
f 129/1/63 130/2/64 131/3/65
f 129/1/63 131/3/65 132/4/66
f 132/4/66 131/3/65 133/5/67
f 132/4/66 133/5/67 134/6/68
f 134/6/68 133/5/67 135/7/69
f 134/6/68 135/7/69 136/8/70
f 136/8/70 135/7/69 130/9/64
f 136/8/70 130/9/64 129/10/63
f 132/11/66 134/6/68 136/8/70
f 132/11/66 136/8/70 129/12/63
f 133/5/67 131/13/65 130/14/64
f 133/5/67 130/14/64 135/7/69
f 137/1/40 138/2/41 139/3/42
f 137/1/40 139/3/42 140/4/43
f 140/4/43 139/3/42 141/5/44
f 140/4/43 141/5/44 142/6/45
f 142/6/45 141/5/44 143/7/46
f 142/6/45 143/7/46 144/8/47
f 144/8/47 143/7/46 138/9/41
f 144/8/47 138/9/41 137/10/40
f 140/11/43 142/6/45 144/8/47
f 140/11/43 144/8/47 137/12/40
f 141/5/44 139/13/42 138/14/41
f 141/5/44 138/14/41 143/7/46
f 145/1/40 146/2/41 147/3/42
f 145/1/40 147/3/42 148/4/43
f 148/4/43 147/3/42 149/5/44
f 148/4/43 149/5/44 150/6/45
f 150/6/45 149/5/44 151/7/46
f 150/6/45 151/7/46 152/8/47
f 152/8/47 151/7/46 146/9/41
f 152/8/47 146/9/41 145/10/40
f 148/11/43 150/6/45 152/8/47
f 148/11/43 152/8/47 145/12/40
f 149/5/44 147/13/42 146/14/41
f 149/5/44 146/14/41 151/7/46
f 153/1/63 154/2/64 155/3/65
f 153/1/63 155/3/65 156/4/66
f 156/4/66 155/3/65 157/5/67
f 156/4/66 157/5/67 158/6/68
f 158/6/68 157/5/67 159/7/69
f 158/6/68 159/7/69 160/8/70
f 160/8/70 159/7/69 154/9/64
f 160/8/70 154/9/64 153/10/63
f 156/11/66 158/6/68 160/8/70
f 156/11/66 160/8/70 153/12/63
f 157/5/67 155/13/65 154/14/64
f 157/5/67 154/14/64 159/7/69
f 161/1/63 162/2/64 163/3/65
f 161/1/63 163/3/65 164/4/66
f 164/4/66 163/3/65 165/5/67
f 164/4/66 165/5/67 166/6/68
f 166/6/68 165/5/67 167/7/69
f 166/6/68 167/7/69 168/8/70
f 168/8/70 167/7/69 162/9/64
f 168/8/70 162/9/64 161/10/63
f 164/11/66 166/6/68 168/8/70
f 164/11/66 168/8/70 161/12/63
f 165/5/67 163/13/65 162/14/64
f 165/5/67 162/14/64 167/7/69
f 169/1/40 170/2/41 171/3/42
f 169/1/40 171/3/42 172/4/43
f 172/4/43 171/3/42 173/5/44
f 172/4/43 173/5/44 174/6/45
f 174/6/45 173/5/44 175/7/46
f 174/6/45 175/7/46 176/8/47
f 176/8/47 175/7/46 170/9/41
f 176/8/47 170/9/41 169/10/40
f 172/11/43 174/6/45 176/8/47
f 172/11/43 176/8/47 169/12/40
f 173/5/44 171/13/42 170/14/41
f 173/5/44 170/14/41 175/7/46
f 177/1/40 178/2/41 179/3/42
f 177/1/40 179/3/42 180/4/43
f 180/4/43 179/3/42 181/5/44
f 180/4/43 181/5/44 182/6/45
f 182/6/45 181/5/44 183/7/46
f 182/6/45 183/7/46 184/8/47
f 184/8/47 183/7/46 178/9/41
f 184/8/47 178/9/41 177/10/40
f 180/11/43 182/6/45 184/8/47
f 180/11/43 184/8/47 177/12/40
f 181/5/44 179/13/42 178/14/41
f 181/5/44 178/14/41 183/7/46
f 185/1/63 186/2/64 187/3/65
f 185/1/63 187/3/65 188/4/66
f 188/4/66 187/3/65 189/5/67
f 188/4/66 189/5/67 190/6/68
f 190/6/68 189/5/67 191/7/69
f 190/6/68 191/7/69 192/8/70
f 192/8/70 191/7/69 186/9/64
f 192/8/70 186/9/64 185/10/63
f 188/11/66 190/6/68 192/8/70
f 188/11/66 192/8/70 185/12/63
f 189/5/67 187/13/65 186/14/64
f 189/5/67 186/14/64 191/7/69
f 193/1/63 194/2/64 195/3/65
f 193/1/63 195/3/65 196/4/66
f 196/4/66 195/3/65 197/5/67
f 196/4/66 197/5/67 198/6/68
f 198/6/68 197/5/67 199/7/69
f 198/6/68 199/7/69 200/8/70
f 200/8/70 199/7/69 194/9/64
f 200/8/70 194/9/64 193/10/63
f 196/11/66 198/6/68 200/8/70
f 196/11/66 200/8/70 193/12/63
f 197/5/67 195/13/65 194/14/64
f 197/5/67 194/14/64 199/7/69
f 201/1/40 202/2/41 203/3/42
f 201/1/40 203/3/42 204/4/43
f 204/4/43 203/3/42 205/5/44
f 204/4/43 205/5/44 206/6/45
f 206/6/45 205/5/44 207/7/46
f 206/6/45 207/7/46 208/8/47
f 208/8/47 207/7/46 202/9/41
f 208/8/47 202/9/41 201/10/40
f 204/11/43 206/6/45 208/8/47
f 204/11/43 208/8/47 201/12/40
f 205/5/44 203/13/42 202/14/41
f 205/5/44 202/14/41 207/7/46
f 209/1/71 210/2/61 211/3/72
f 209/1/71 211/3/72 212/4/73
f 212/4/73 211/3/72 213/5/74
f 212/4/73 213/5/74 214/6/75
f 214/6/75 213/5/74 215/7/76
f 214/6/75 215/7/76 216/8/62
f 216/8/62 215/7/76 210/9/61
f 216/8/62 210/9/61 209/10/71
f 212/11/73 214/6/75 216/8/62
f 212/11/73 216/8/62 209/12/71
f 213/5/74 211/13/72 210/14/61
f 213/5/74 210/14/61 215/7/76
f 217/1/63 218/2/64 219/3/65
f 217/1/63 219/3/65 220/4/66
f 220/4/66 219/3/65 221/5/67
f 220/4/66 221/5/67 222/6/68
f 222/6/68 221/5/67 223/7/69
f 222/6/68 223/7/69 224/8/70
f 224/8/70 223/7/69 218/9/64
f 224/8/70 218/9/64 217/10/63
f 220/11/66 222/6/68 224/8/70
f 220/11/66 224/8/70 217/12/63
f 221/5/67 219/13/65 218/14/64
f 221/5/67 218/14/64 223/7/69
f 225/1/40 226/2/41 227/3/42
f 225/1/40 227/3/42 228/4/43
f 228/4/43 227/3/42 229/5/44
f 228/4/43 229/5/44 230/6/45
f 230/6/45 229/5/44 231/7/46
f 230/6/45 231/7/46 232/8/47
f 232/8/47 231/7/46 226/9/41
f 232/8/47 226/9/41 225/10/40
f 228/11/43 230/6/45 232/8/47
f 228/11/43 232/8/47 225/12/40
f 229/5/44 227/13/42 226/14/41
f 229/5/44 226/14/41 231/7/46
f 233/1/63 234/2/64 235/3/65
f 233/1/63 235/3/65 236/4/66
f 236/4/66 235/3/65 237/5/67
f 236/4/66 237/5/67 238/6/68
f 238/6/68 237/5/67 239/7/69
f 238/6/68 239/7/69 240/8/70
f 240/8/70 239/7/69 234/9/64
f 240/8/70 234/9/64 233/10/63
f 236/11/66 238/6/68 240/8/70
f 236/11/66 240/8/70 233/12/63
f 237/5/67 235/13/65 234/14/64
f 237/5/67 234/14/64 239/7/69
f 241/1/63 242/2/64 243/3/65
f 241/1/63 243/3/65 244/4/66
f 244/4/66 243/3/65 245/5/67
f 244/4/66 245/5/67 246/6/68
f 246/6/68 245/5/67 247/7/69
f 246/6/68 247/7/69 248/8/70
f 248/8/70 247/7/69 242/9/64
f 248/8/70 242/9/64 241/10/63
f 244/11/66 246/6/68 248/8/70
f 244/11/66 248/8/70 241/12/63
f 245/5/67 243/13/65 242/14/64
f 245/5/67 242/14/64 247/7/69
f 249/1/63 250/2/64 251/3/65
f 249/1/63 251/3/65 252/4/66
f 252/4/66 251/3/65 253/5/67
f 252/4/66 253/5/67 254/6/68
f 254/6/68 253/5/67 255/7/69
f 254/6/68 255/7/69 256/8/70
f 256/8/70 255/7/69 250/9/64
f 256/8/70 250/9/64 249/10/63
f 252/11/66 254/6/68 256/8/70
f 252/11/66 256/8/70 249/12/63
f 253/5/67 251/13/65 250/14/64
f 253/5/67 250/14/64 255/7/69
f 257/1/63 258/2/64 259/3/65
f 257/1/63 259/3/65 260/4/66
f 260/4/66 259/3/65 261/5/67
f 260/4/66 261/5/67 262/6/68
f 262/6/68 261/5/67 263/7/69
f 262/6/68 263/7/69 264/8/70
f 264/8/70 263/7/69 258/9/64
f 264/8/70 258/9/64 257/10/63
f 260/11/66 262/6/68 264/8/70
f 260/11/66 264/8/70 257/12/63
f 261/5/67 259/13/65 258/14/64
f 261/5/67 258/14/64 263/7/69
